<svg width="16" height="16" viewBox="0 0 16 16" fill="none" xmlns="http://www.w3.org/2000/svg">
<path d="M7.98047 0C7.84366 0.594447 7.92099 1.23962 8.25 1.80957C8.76389 2.69965 9.74225 3.15253 10.7021 3.04199C10.7543 3.4123 10.8758 3.7793 11.0742 4.12305C11.9027 5.55788 13.738 6.04912 15.1729 5.2207C15.2646 5.16774 15.3517 5.10965 15.4355 5.04883C15.7984 5.96221 16 6.95738 16 8C16 12.4183 12.4183 16 8 16C3.58172 16 0 12.4183 0 8C0 3.58823 3.57117 0.0105369 7.98047 0ZM6.9541 1.07812C3.58428 1.58301 1 4.48947 1 8C1 11.866 4.13401 15 8 15C11.866 15 15 11.866 15 8C15 7.46751 14.9373 6.95008 14.8242 6.45215C13.0869 6.97615 11.1548 6.26276 10.208 4.62305C10.0952 4.42764 10.0021 4.2261 9.92578 4.02148C8.98127 3.88788 8.09812 3.37357 7.52637 2.53613L7.38379 2.30957C7.15748 1.91753 7.01666 1.49979 6.9541 1.07812ZM5.5 11C5.77614 11 6 11.2239 6 11.5C6 11.7761 5.77614 12 5.5 12C5.22386 12 5 11.7761 5 11.5C5 11.2239 5.22386 11 5.5 11ZM10.5 9C11.3284 9 12 9.67157 12 10.5C12 11.3284 11.3284 12 10.5 12C9.67157 12 9 11.3284 9 10.5C9 9.67157 9.67157 9 10.5 9ZM5 5C5.55228 5 6 5.44772 6 6C6 6.55228 5.55228 7 5 7C4.44772 7 4 6.55228 4 6C4 5.44772 4.44772 5 5 5Z" fill="black"/>
</svg>
