<svg width="16" height="16" viewBox="0 0 16 16" fill="none" xmlns="http://www.w3.org/2000/svg">
<path d="M10.0469 2.32715C10.185 2.32715 10.3199 2.34148 10.4502 2.36816C10.6453 2.40812 10.8301 2.4761 11 2.56836C11.2267 2.69145 11.4268 2.85723 11.5898 3.05469C11.6715 3.15362 11.744 3.26046 11.8057 3.37402C11.9595 3.65735 12.0469 3.98207 12.0469 4.32715V5.05762L14.5 3.6416C15.1666 3.25678 16 3.73807 16 4.50781V10.8252C15.9997 11.5948 15.1665 12.0753 14.5 11.6904L12.0469 10.2734V11.2793L12.0371 11.4834C12.024 11.6126 11.9965 11.7377 11.96 11.8584C11.9554 11.8735 11.9502 11.8884 11.9453 11.9033C11.93 11.95 11.9132 11.9959 11.8945 12.041C11.8897 12.0528 11.885 12.0645 11.8799 12.0762C11.8603 12.1211 11.8391 12.1649 11.8164 12.208C11.8085 12.223 11.8012 12.2382 11.793 12.2529C11.7705 12.2931 11.7458 12.3317 11.7207 12.3701C11.7126 12.3825 11.7047 12.395 11.6963 12.4072C11.6692 12.4467 11.6411 12.4851 11.6113 12.5225C11.6018 12.5344 11.5928 12.5468 11.583 12.5586C11.5058 12.6511 11.4206 12.7363 11.3281 12.8135C11.3135 12.8257 11.2981 12.8368 11.2832 12.8486C11.249 12.8756 11.2146 12.9021 11.1787 12.9268C11.1624 12.938 11.1455 12.9482 11.1289 12.959C11.0959 12.9803 11.0626 13.0011 11.0283 13.0205C11.0065 13.0328 10.9842 13.0442 10.9619 13.0557C10.9283 13.073 10.8941 13.089 10.8594 13.1045C10.8389 13.1136 10.8187 13.1234 10.7979 13.1318C10.7617 13.1465 10.7247 13.1593 10.6875 13.1719C10.6641 13.1798 10.6409 13.1883 10.6172 13.1953C10.5787 13.2067 10.5394 13.2155 10.5 13.2246C10.4798 13.2293 10.4599 13.2352 10.4395 13.2393C10.3778 13.2515 10.3155 13.2621 10.252 13.2686L10.0469 13.2793H2L1.7959 13.2686C1.73277 13.2622 1.67062 13.2524 1.60938 13.2402C1.58365 13.2351 1.55856 13.2278 1.5332 13.2217C1.49943 13.2136 1.4657 13.2061 1.43262 13.1963C1.40458 13.188 1.37711 13.1784 1.34961 13.1689C1.31696 13.1577 1.28479 13.1457 1.25293 13.1328C1.2296 13.1234 1.20648 13.1138 1.18359 13.1035C1.15095 13.0889 1.1186 13.0739 1.08691 13.0576C1.06147 13.0445 1.03651 13.0307 1.01172 13.0166C0.985134 13.0014 0.959397 12.9851 0.933594 12.9688C0.909284 12.9534 0.884914 12.9383 0.861328 12.9219C0.835675 12.9041 0.810892 12.8852 0.786133 12.8662C0.64547 12.7584 0.519777 12.6329 0.412109 12.4922C0.397873 12.4736 0.382729 12.4556 0.369141 12.4365L0.341797 12.3975C0.332393 12.3835 0.324489 12.3687 0.31543 12.3545C0.295685 12.3236 0.275876 12.2927 0.257812 12.2607C0.245506 12.2389 0.234159 12.2166 0.222656 12.1943C0.205794 12.1616 0.189886 12.1284 0.174805 12.0947C0.164564 12.0718 0.154904 12.0487 0.145508 12.0254C0.132682 11.9935 0.120583 11.9614 0.109375 11.9287C0.0999294 11.9012 0.0902968 11.8737 0.0820312 11.8457C0.0722805 11.8126 0.0647037 11.7789 0.0566406 11.7451C0.050584 11.7198 0.0431666 11.6947 0.0380859 11.6689C0.0260703 11.6081 0.0171059 11.5461 0.0107422 11.4834L0 11.2793V4.32715C7.54942e-06 4.19274 0.0137728 4.06153 0.0390625 3.93457C0.0447118 3.9062 0.0527348 3.87851 0.0595703 3.85059C0.0680744 3.81586 0.0756455 3.78106 0.0859375 3.74707C0.092934 3.72396 0.101573 3.70146 0.109375 3.67871C0.122216 3.64128 0.134451 3.60377 0.149414 3.56738C0.159121 3.54377 0.171066 3.5212 0.181641 3.49805C0.196929 3.46459 0.211466 3.43088 0.228516 3.39844C0.242303 3.37219 0.257558 3.34683 0.272461 3.32129C0.288478 3.29385 0.304999 3.26682 0.322266 3.24023C0.337478 3.2168 0.352988 3.19364 0.369141 3.1709C0.390323 3.14109 0.411826 3.11157 0.43457 3.08301C0.450699 3.06274 0.467487 3.04305 0.484375 3.02344C0.507402 2.99671 0.531275 2.97078 0.555664 2.94531C0.576047 2.92401 0.596865 2.9032 0.618164 2.88281C0.639488 2.86242 0.661385 2.84269 0.683594 2.82324C0.707584 2.80222 0.731853 2.78159 0.756836 2.76172C0.782881 2.74102 0.809836 2.72155 0.836914 2.70215C0.859884 2.68568 0.882568 2.66883 0.90625 2.65332C0.93398 2.63517 0.962547 2.61834 0.991211 2.60156C1.01711 2.58639 1.04271 2.57067 1.06934 2.55664C1.09738 2.54188 1.12646 2.52908 1.15527 2.51562C1.18402 2.5022 1.21272 2.48864 1.24219 2.47656C1.26855 2.46576 1.29535 2.45598 1.32227 2.44629C1.35425 2.43476 1.38623 2.42301 1.41895 2.41309C1.44585 2.40493 1.4736 2.39962 1.50098 2.39258C1.66069 2.3515 1.82747 2.32715 2 2.32715H10.0469ZM2 3.32715C1.82739 3.32715 1.66514 3.37125 1.52344 3.44824L1.44141 3.49805C1.42324 3.51031 1.40596 3.52371 1.38867 3.53711C1.29664 3.60842 1.21772 3.69524 1.15527 3.79395C1.12639 3.8396 1.1004 3.88725 1.0791 3.9375C1.02835 4.05727 1.00002 4.18888 1 4.32715V11.2793C1.00006 11.5208 1.08596 11.7422 1.22852 11.915C1.26934 11.9645 1.31478 12.01 1.36426 12.0508C1.43825 12.1119 1.52075 12.1632 1.61035 12.2012C1.67032 12.2266 1.73356 12.2455 1.79883 12.2588C1.86384 12.2721 1.93107 12.2793 2 12.2793H10.0469C10.2884 12.2793 10.5098 12.1934 10.6826 12.0508C10.7321 12.01 10.7775 11.9645 10.8184 11.915C10.9609 11.7422 11.0468 11.5208 11.0469 11.2793V4.32715C11.0469 4.18888 11.0185 4.05727 10.9678 3.9375C10.9465 3.88725 10.9205 3.8396 10.8916 3.79395C10.8292 3.69524 10.7502 3.60842 10.6582 3.53711C10.6409 3.52371 10.6236 3.51031 10.6055 3.49805L10.5234 3.44824C10.3817 3.37125 10.2195 3.32715 10.0469 3.32715H2ZM12.5469 5.92383L12.0469 6.21191V9.11816L12.5469 9.40723L15 10.8242V4.50781L12.5469 5.92383Z" fill="black"/>
</svg>
